<svg height="512pt" viewBox="0 0 512 512" width="512pt" xmlns="http://www.w3.org/2000/svg"><path d="m360.878906 117.683594v-57.753906h60.929688v-29.964844h-90.894532v74.265625c-20.152343-7.589844-40.195312-12.167969-59.929687-13.71875v-30.582031h-29.96875v30.582031c-19.734375 1.550781-39.777344 6.128906-59.929687 13.71875v-74.265625h-89.894532v29.964844h59.929688v57.753906c-56.082032 29.238281-113.300782 83.859375-145.128906 129.441406l-5.992188 8.578125 5.992188 8.578125c32.414062 46.421875 89.816406 100.605469 145.128906 129.445312v57.75h-59.929688v29.964844h89.894532v-74.261718c20.152343 7.589843 40.195312 12.167968 59.929687 13.714843v30.582031h29.96875v-30.582031c19.734375-1.546875 39.777344-6.125 59.929687-13.714843v74.261718h90.894532v-29.964844h-60.929688v-57.75c56.082032-29.238281 113.300782-83.859374 145.128906-129.441406l5.992188-8.578125-5.992188-8.578125c-32.414062-46.425781-89.820312-100.609375-145.128906-129.445312zm-104.878906 273.863281c-84.566406 0-167.527344-69.601563-219.007812-135.835937 24.179687-31.070313 113.574218-135.847657 219.007812-135.847657 84.566406 0 167.527344 69.601563 219.007812 135.835938-24.1875 31.074219-113.582031 135.847656-219.007812 135.847656zm0 0"/><path d="m256 149.828125c-57.832031 0-104.878906 47.496094-104.878906 105.875 0 58.382813 47.046875 105.878906 104.878906 105.878906s104.878906-47.496093 104.878906-105.878906c0-58.378906-47.046875-105.875-104.878906-105.875zm0 181.789063c-41.308594 0-74.914062-34.054688-74.914062-75.914063 0-41.855469 33.605468-75.910156 74.914062-75.910156s74.914062 34.054687 74.914062 75.910156c0 41.859375-33.605468 75.914063-74.914062 75.914063zm0 0"/><path d="m256 209.757812c-24.363281 0-44.949219 21.039063-44.949219 45.945313 0 24.785156 20.164063 44.949219 44.949219 44.949219s44.949219-20.164063 44.949219-44.949219c0-24.90625-20.585938-45.945313-44.949219-45.945313zm0 60.929688c-8.261719 0-14.984375-6.722656-14.984375-14.984375 0-8.511719 7.003906-15.980469 14.984375-15.980469s14.984375 7.46875 14.984375 15.980469c0 8.261719-6.722656 14.984375-14.984375 14.984375zm0 0"/><path d="m241.015625 481.441406h29.96875v29.96875h-29.96875zm0 0"/><path d="m451.773438 451.476562h29.964843v29.964844h-29.964843zm0 0"/><path d="m31.261719 451.476562h29.964843v29.964844h-29.964843zm0 0"/><path d="m241.015625 0h29.96875v29.964844h-29.96875zm0 0"/><path d="m451.773438 29.964844h29.964843v29.964844h-29.964843zm0 0"/><path d="m31.261719 29.964844h29.964843v29.964844h-29.964843zm0 0"/></svg>